# xmcd
#
# Track frame offsets:
#	150
#	14181
#	26551
#	42602
#	57526
#	79411
#	96136
#	112415
#	124189
#	137615
#	165664
#	183587
#	198961
#	221988
#
# Disc length: 3124 seconds
#
# Revision: 1
# Processed by: cddbd v1.5.2PL0 Copyright (c) Steve Scherf et al.
# Submitted via: audiograbber 1.83.01
#
DISCID=dd0c320e
DTITLE=Lyle Lovett - Release Me
DYEAR=1900
DGENRE=
TTITLE0=Garfield's Blackberry Blossom
TTITLE1=Release Me
TTITLE2=White Boy Lost In The Blues
TTITLE3=Baby, It's Cold Outside
TTITLE4=Isn't That So
TTITLE5=Understand You
TTITLE6=Brown Eyed Handsome Man
TTITLE7=Keep It Clean
TTITLE8=One Way Gal
TTITLE9=Dress Of Laces
TTITLE10=The Girl With The Holiday Smile
TTITLE11=Night's Lullaby
TTITLE12=White Frightliner Blues
TTITLE13=Keep Us Steadfast
EXTD=
EXTT0=
EXTT1=
EXTT2=
EXTT3=
EXTT4=
EXTT5=
EXTT6=
EXTT7=
EXTT8=
EXTT9=
EXTT10=
EXTT11=
EXTT12=
EXTT13=
PLAYORDER=
